# Vectary OBJ Export units=mm
mtllib cond.mtl
o 000_op_-_=
g op_-_=
usemtl Lorenzo 17_0e1ec80e-9f56-49bc-92c4-0d3a6f45e9f2
v 9.980 62.687 -447.502
v 6.684 62.687 -447.502
v 6.684 62.687 -470.402
v 9.980 62.687 -470.402
v -0.005 62.687 -447.502
v -3.301 62.687 -447.502
v -3.301 62.687 -470.402
v -0.005 62.687 -470.402
v 6.684 77.687 -447.502
v 9.980 77.687 -447.502
v 9.980 77.687 -470.402
v 6.684 77.687 -470.402
v -3.301 77.687 -447.502
v -0.005 77.687 -447.502
v -0.005 77.687 -470.402
v -3.301 77.687 -470.402
vt 0.27100 0.63281
vt 0.27100 0.56689
vt 0.72900 0.56689
vt 0.72900 0.63281
vt 0.27100 0.43311
vt 0.27100 0.36719
vt 0.72900 0.36719
vt 0.72900 0.43311
vt 0.72900 0.56689
vt 0.72900 0.63281
vt 0.27100 0.63281
vt 0.27100 0.56689
vt 0.72900 0.36719
vt 0.72900 0.43311
vt 0.27100 0.43311
vt 0.27100 0.36719
vt 0.35000 0.27100
vt 0.65000 0.27100
vt 0.65000 0.72900
vt 0.35000 0.72900
vt 0.65000 0.63281
vt 0.35000 0.63281
vt 0.35000 0.56689
vt 0.65000 0.56689
vt 0.35000 0.27100
vt 0.65000 0.27100
vt 0.65000 0.72900
vt 0.35000 0.72900
vt 0.35000 0.56689
vt 0.65000 0.56689
vt 0.65000 0.63281
vt 0.35000 0.63281
vt 0.35000 0.27100
vt 0.65000 0.27100
vt 0.65000 0.72900
vt 0.35000 0.72900
vt 0.65000 0.43311
vt 0.35000 0.43311
vt 0.35000 0.36719
vt 0.65000 0.36719
vt 0.35000 0.27100
vt 0.65000 0.27100
vt 0.65000 0.72900
vt 0.35000 0.72900
vt 0.35000 0.36719
vt 0.65000 0.36719
vt 0.65000 0.43311
vt 0.35000 0.43311
vn -0.00000 -1.00000 -0.00000
vn -0.00000 -1.00000 -0.00000
vn -0.00000 -1.00000 -0.00000
vn -0.00000 -1.00000 -0.00000
vn -0.00000 -1.00000 -0.00000
vn -0.00000 -1.00000 -0.00000
vn -0.00000 -1.00000 -0.00000
vn -0.00000 -1.00000 -0.00000
vn 0.00000 1.00000 0.00000
vn 0.00000 1.00000 0.00000
vn 0.00000 1.00000 0.00000
vn 0.00000 1.00000 0.00000
vn 0.00000 1.00000 0.00000
vn 0.00000 1.00000 0.00000
vn 0.00000 1.00000 0.00000
vn 0.00000 1.00000 0.00000
vn -1.00000 -0.00000 0.00000
vn -1.00000 -0.00000 0.00000
vn -1.00000 -0.00000 0.00000
vn -1.00000 -0.00000 0.00000
vn 0.00000 -0.00000 1.00000
vn 0.00000 -0.00000 1.00000
vn 0.00000 -0.00000 1.00000
vn 0.00000 -0.00000 1.00000
vn 1.00000 0.00000 -0.00000
vn 1.00000 0.00000 -0.00000
vn 1.00000 0.00000 -0.00000
vn 1.00000 0.00000 -0.00000
vn -0.00000 0.00000 -1.00000
vn -0.00000 0.00000 -1.00000
vn -0.00000 0.00000 -1.00000
vn -0.00000 0.00000 -1.00000
vn -1.00000 -0.00000 0.00000
vn -1.00000 -0.00000 0.00000
vn -1.00000 -0.00000 0.00000
vn -1.00000 -0.00000 0.00000
vn 0.00000 -0.00000 1.00000
vn 0.00000 -0.00000 1.00000
vn 0.00000 -0.00000 1.00000
vn 0.00000 -0.00000 1.00000
vn 1.00000 0.00000 -0.00000
vn 1.00000 0.00000 -0.00000
vn 1.00000 0.00000 -0.00000
vn 1.00000 0.00000 -0.00000
vn -0.00000 0.00000 -1.00000
vn -0.00000 0.00000 -1.00000
vn -0.00000 0.00000 -1.00000
vn -0.00000 0.00000 -1.00000
f 2/2/2 3/3/3 4/4/4 1/1/1 
f 6/6/6 7/7/7 8/8/8 5/5/5 
f 10/10/10 11/11/11 12/12/12 9/9/9 
f 14/14/14 15/15/15 16/16/16 13/13/13 
f 9/18/18 12/19/19 3/20/20 2/17/17 
f 10/22/22 9/23/23 2/24/24 1/21/21 
f 11/26/26 10/27/27 1/28/28 4/25/25 
f 12/30/30 11/31/31 4/32/32 3/29/29 
f 13/34/34 16/35/35 7/36/36 6/33/33 
f 14/38/38 13/39/39 6/40/40 5/37/37 
f 15/42/42 14/43/43 5/44/44 8/41/41 
f 16/46/46 15/47/47 8/48/48 7/45/45 
