# Vectary OBJ Export units=mm
mtllib cond.mtl
o 000_op_-_<
g op_-_<
usemtl Lorenzo 4_8ae3db0e-cd2b-4bd4-b986-5281a2757897
v 4.389 62.687 -256.657
v 3.388 62.687 -252.263
v 2.070 62.687 -256.657
v 16.010 62.687 -233.171
v 12.397 62.687 -233.171
v -4.742 62.687 -233.171
v -8.330 62.687 -233.171
v 2.070 77.687 -256.657
v 3.388 77.687 -252.263
v 4.389 77.687 -256.657
v 12.397 77.687 -233.171
v 16.010 77.687 -233.171
v -8.330 77.687 -233.171
v -4.742 77.687 -233.171
vt 0.73486 0.51098
vt 0.64698 0.49096
vt 0.73486 0.46460
vt 0.26514 0.74340
vt 0.26514 0.67114
vt 0.26514 0.32836
vt 0.26514 0.25660
vt 0.26514 0.46460
vt 0.35302 0.49096
vt 0.26514 0.51098
vt 0.73486 0.67114
vt 0.73486 0.74340
vt 0.73486 0.25660
vt 0.73486 0.32836
vt 0.35000 0.46460
vt 0.65000 0.46460
vt 0.65000 0.51098
vt 0.35000 0.51098
vt 0.35000 0.26514
vt 0.65000 0.26514
vt 0.65000 0.73486
vt 0.35000 0.73486
vt 0.35000 0.26514
vt 0.65000 0.26514
vt 0.65000 0.64698
vt 0.35000 0.64698
vt 0.65000 0.74340
vt 0.35000 0.74340
vt 0.35000 0.67114
vt 0.65000 0.67114
vt 0.35000 0.26514
vt 0.65000 0.26514
vt 0.65000 0.73486
vt 0.35000 0.73486
vt 0.65000 0.32836
vt 0.35000 0.32836
vt 0.35000 0.25660
vt 0.65000 0.25660
vt 0.35000 0.35302
vt 0.65000 0.35302
vt 0.65000 0.73486
vt 0.35000 0.73486
vn -0.00000 -1.00000 -0.00000
vn -0.00000 -1.00000 -0.00000
vn -0.00000 -1.00000 -0.00000
vn -0.00000 -1.00000 -0.00000
vn -0.00000 -1.00000 -0.00000
vn -0.00000 -1.00000 -0.00000
vn -0.00000 -1.00000 -0.00000
vn -0.00000 -1.00000 -0.00000
vn -0.00000 -1.00000 -0.00000
vn -0.00000 -1.00000 -0.00000
vn -0.00000 -1.00000 -0.00000
vn 0.00000 1.00000 0.00000
vn 0.00000 1.00000 0.00000
vn 0.00000 1.00000 0.00000
vn 0.00000 1.00000 0.00000
vn 0.00000 1.00000 0.00000
vn 0.00000 1.00000 0.00000
vn 0.00000 1.00000 0.00000
vn 0.00000 1.00000 0.00000
vn 0.00000 1.00000 0.00000
vn 0.00000 1.00000 0.00000
vn 0.00000 1.00000 0.00000
vn -0.00000 0.00000 -1.00000
vn -0.00000 0.00000 -1.00000
vn -0.00000 0.00000 -1.00000
vn -0.00000 0.00000 -1.00000
vn 0.89628 0.00000 -0.44349
vn 0.89628 0.00000 -0.44349
vn 0.89628 0.00000 -0.44349
vn 0.89628 0.00000 -0.44349
vn -0.90437 -0.00000 0.42675
vn -0.90437 -0.00000 0.42675
vn -0.90437 -0.00000 0.42675
vn -0.90437 -0.00000 0.42675
vn 0.00000 -0.00000 1.00000
vn 0.00000 -0.00000 1.00000
vn 0.00000 -0.00000 1.00000
vn 0.00000 -0.00000 1.00000
vn -0.91436 0.00000 -0.40490
vn -0.91436 0.00000 -0.40490
vn -0.91436 0.00000 -0.40490
vn -0.91436 0.00000 -0.40490
vn 0.00000 -0.00000 1.00000
vn 0.00000 -0.00000 1.00000
vn 0.00000 -0.00000 1.00000
vn 0.00000 -0.00000 1.00000
vn 0.92005 -0.00000 0.39179
vn 0.92005 -0.00000 0.39179
vn 0.92005 -0.00000 0.39179
vn 0.92005 -0.00000 0.39179
f 1/1/1 2/2/2 3/3/3 
f 1/1/5 4/4/6 5/5/7 2/2/4 
f 7/7/9 3/3/10 2/2/11 6/6/8 
f 8/8/12 9/9/13 10/10/14 
f 9/9/16 11/11/17 12/12/18 10/10/15 
f 14/14/20 9/9/21 8/8/22 13/13/19 
f 8/16/24 10/17/25 1/18/26 3/15/23 
f 10/20/28 12/21/29 4/22/30 1/19/27 
f 11/24/32 9/25/33 2/26/34 5/23/31 
f 12/28/36 11/29/37 5/30/38 4/27/35 
f 13/32/40 8/33/41 3/34/42 7/31/39 
f 14/36/44 13/37/45 7/38/46 6/35/43 
f 9/40/48 14/41/49 6/42/50 2/39/47 
