# Vectary OBJ Export units=mm
mtllib Project Name.mtl
o 000_3D_Text_-_▶
g 3D_Text_-_▶
usemtl Flora_ca98f275-afa2-405a-ac23-d70c76845833
v 10.650 44.656 21.121
v -10.650 44.656 31.771
v 10.650 44.656 42.421
v 10.650 29.656 42.421
v -10.650 29.656 31.771
v 10.650 29.656 21.121
vt 0.71300 0.71300
vt 0.28700 0.50000
vt 0.71300 0.28700
vt 0.28700 0.28700
vt 0.71300 0.50000
vt 0.28700 0.71300
vt 0.35000 0.71300
vt 0.35000 0.28700
vt 0.65000 0.28700
vt 0.65000 0.71300
vt 0.35000 0.71300
vt 0.35000 0.28700
vt 0.65000 0.28700
vt 0.65000 0.71300
vt 0.35000 0.71300
vt 0.35000 0.28700
vt 0.65000 0.28700
vt 0.65000 0.71300
vn 0.00000 1.00000 0.00000
vn 0.00000 1.00000 0.00000
vn 0.00000 1.00000 0.00000
vn -0.00000 -1.00000 -0.00000
vn -0.00000 -1.00000 -0.00000
vn -0.00000 -1.00000 -0.00000
vn -0.44721 -0.00000 0.89443
vn -0.44721 -0.00000 0.89443
vn -0.44721 -0.00000 0.89443
vn -0.44721 -0.00000 0.89443
vn -0.44721 0.00000 -0.89443
vn -0.44721 0.00000 -0.89443
vn -0.44721 0.00000 -0.89443
vn -0.44721 0.00000 -0.89443
vn 1.00000 -0.00000 -0.00000
vn 1.00000 -0.00000 -0.00000
vn 1.00000 -0.00000 -0.00000
vn 1.00000 -0.00000 -0.00000
f 1/1/1 2/2/2 3/3/3 
f 4/4/4 5/5/5 6/6/6 
f 3/7/7 2/8/8 5/9/9 4/10/10 
f 2/11/11 1/12/12 6/13/13 5/14/14 
f 1/15/15 3/16/16 4/17/17 6/18/18 
