# Vectary OBJ Export units=mm
mtllib Project Name.mtl
o 000_3D_Text_-__
g 3D_Text_-__
usemtl Coastal Calm_4af912bd-b170-47b8-8b13-3475ea6d4b56
v 0.219 64.011 1.299
v 0.219 64.011 23.907
v 3.417 64.011 23.907
v 3.417 64.011 1.299
v 0.219 49.011 23.907
v 0.219 49.011 1.299
v 3.417 49.011 1.299
v 3.417 49.011 23.907
vt 0.27392 0.46802
vt 0.72608 0.46802
vt 0.72608 0.53198
vt 0.27392 0.53198
vt 0.27392 0.46802
vt 0.72608 0.46802
vt 0.72608 0.53198
vt 0.27392 0.53198
vt 0.35000 0.46802
vt 0.65000 0.46802
vt 0.65000 0.53198
vt 0.35000 0.53198
vt 0.35000 0.27392
vt 0.65000 0.27392
vt 0.65000 0.72608
vt 0.35000 0.72608
vt 0.65000 0.53198
vt 0.35000 0.53198
vt 0.35000 0.46802
vt 0.65000 0.46802
vt 0.35000 0.27392
vt 0.65000 0.27392
vt 0.65000 0.72608
vt 0.35000 0.72608
vn -0.00000 1.00000 -0.00000
vn -0.00000 1.00000 -0.00000
vn -0.00000 1.00000 -0.00000
vn -0.00000 1.00000 -0.00000
vn 0.00000 -1.00000 0.00000
vn 0.00000 -1.00000 0.00000
vn 0.00000 -1.00000 0.00000
vn 0.00000 -1.00000 0.00000
vn -0.00000 0.00000 1.00000
vn -0.00000 0.00000 1.00000
vn -0.00000 0.00000 1.00000
vn -0.00000 0.00000 1.00000
vn -1.00000 0.00000 -0.00000
vn -1.00000 0.00000 -0.00000
vn -1.00000 0.00000 -0.00000
vn -1.00000 0.00000 -0.00000
vn 0.00000 0.00000 -1.00000
vn 0.00000 0.00000 -1.00000
vn 0.00000 0.00000 -1.00000
vn 0.00000 0.00000 -1.00000
vn 1.00000 0.00000 0.00000
vn 1.00000 0.00000 0.00000
vn 1.00000 0.00000 0.00000
vn 1.00000 0.00000 0.00000
f 2/2/2 3/3/3 4/4/4 1/1/1 
f 6/6/6 7/7/7 8/8/8 5/5/5 
f 5/10/10 8/11/11 3/12/12 2/9/9 
f 6/14/14 5/15/15 2/16/16 1/13/13 
f 7/18/18 6/19/19 1/20/20 4/17/17 
f 8/22/22 7/23/23 4/24/24 3/21/21 
