# ProBuilder 5.0.6
# https://unity3d.com/unity/features/worldbuilding/probuilder
# 10/26/2022 3:01:25 PM

mtllib ./Cube.mtl
o Cube

g Cube
v 1.450237 0 1.476957
v 0 0 1.476957
v 1.450237 0.2602796 1.476957
v 0 0.2602796 1.476957
v 0 0 1.192093E-07
v 0 0.2602796 1.192093E-07
v 1.450237 0 1.192093E-07
v 1.450237 0.2602796 1.192093E-07

vt 1.450237 0
vt 0 0
vt 1.450237 0.2602796
vt 0 0.2602796
vt 1.476957 0
vt 1.476957 0.2602796
vt -1.450237 0
vt -1.450237 0.2602796
vt -1.476957 0
vt -1.476957 0.2602796
vt -1.450237 1.476957
vt 0 1.476957
vt 1.450237 1.476957

vn 0 0 1
vn -1 0 0
vn 0 0 -1
vn 1 0 0
vn 0 1 0
vn 0 -1 0

usemtl ProBuilderDefault
f 3/3/1 4/4/1 2/2/1 1/1/1
f 4/6/2 6/4/2 5/2/2 2/5/2
f 6/4/3 8/8/3 7/7/3 5/2/3
f 8/4/4 3/10/4 1/9/4 7/2/4
f 8/7/5 6/2/5 4/12/5 3/11/5
f 1/13/6 2/12/6 5/2/6 7/1/6

