# ProBuilder 5.0.6
# https://unity3d.com/unity/features/worldbuilding/probuilder
# 10/26/2022 3:01:25 PM

mtllib ./Pipe.mtl
o Pipe

g Pipe
v 0 -1.479655 1.228458
v -1.243301 -1.479655 5.960464E-08
v 0 1.479655 1.228458
v -1.243301 1.479655 5.960464E-08
v -0.9933009 -1.479655 5.960464E-08
v 0 -1.479655 0.9784581
v -0.9933009 1.479655 5.960464E-08
v 0 1.479655 0.9784581
v 1.243301 -1.479655 -5.960464E-08
v 1.243301 1.479655 -5.960464E-08
v 0.9933009 -1.479655 -5.960464E-08
v 0.9933009 1.479655 -5.960464E-08
v 0 -1.479655 -1.228458
v 0 1.479655 -1.228458
v 0 -1.479655 -0.9784581
v 0 1.479655 -0.9784581

vt 0.8634193 -1.479655
vt -0.8844097 -1.479655
vt 0.8634193 1.479655
vt -0.8844097 1.479655
vt 0.707637 -1.479655
vt -0.6866466 -1.479655
vt 0.707637 1.479655
vt -0.6866466 1.479655
vt 0.8844098 -1.479655
vt -0.8634193 -1.479655
vt 0.8844098 1.479655
vt -0.8634193 1.479655
vt 0.6866467 -1.479655
vt -0.707637 -1.479655
vt 0.6866467 1.479655
vt -0.707637 1.479655
vt -1.243301 5.960464E-08
vt 0 1.228458
vt -0.9933009 5.960464E-08
vt 0 0.9784581
vt 1.243301 5.960464E-08
vt 0.9933009 5.960464E-08
vt 0 -1.228458
vt 0 -0.9784581

vn 0.1875226 -0.8004116 0.569365
vn -0.5645014 -0.8031629 0.1904406
vn -0.1875226 0.8004116 0.569365
vn -0.5645014 0.8031629 -0.1904406
vn 0.563877 -0.8035136 0.1908102
vn 0.1871522 -0.8000649 -0.5699738
vn 0.563877 0.8035136 -0.1908103
vn -0.1871523 0.8000649 -0.5699738
vn 0.5645014 -0.8031629 -0.1904406
vn 0.5645014 0.8031629 0.1904406
vn -0.563877 -0.8035136 -0.1908102
vn -0.5638769 0.8035136 0.1908103
vn -0.1875226 -0.8004116 -0.569365
vn 0.1875226 0.8004116 -0.569365
vn -0.1871522 -0.8000649 0.5699738
vn 0.1871523 0.8000649 0.5699738

usemtl ProBuilderDefault
f 3/3/3 2/2/2 1/1/1
f 3/3/3 4/4/4 2/2/2
f 7/7/7 6/6/6 5/5/5
f 7/7/7 8/8/8 6/6/6
f 10/11/10 1/10/1 9/9/9
f 10/11/10 3/12/3 1/10/1
f 8/15/8 11/14/11 6/13/6
f 8/15/8 12/16/12 11/14/11
f 14/3/14 9/2/9 13/1/13
f 14/3/14 10/4/10 9/2/9
f 12/7/12 15/6/15 11/5/11
f 12/7/12 16/8/16 15/6/15
f 4/11/4 13/10/13 2/9/2
f 4/11/4 14/12/14 13/10/13
f 16/15/16 5/14/5 15/13/15
f 16/15/16 7/16/7 5/14/5
f 5/19/5 1/18/1 2/17/2
f 5/19/5 6/20/6 1/18/1
f 8/20/8 4/21/4 3/18/3
f 8/20/8 7/22/7 4/21/4
f 6/20/6 9/21/9 1/18/1
f 6/20/6 11/22/11 9/21/9
f 12/19/12 3/18/3 10/17/10
f 12/19/12 8/20/8 3/18/3
f 11/22/11 13/23/13 9/21/9
f 11/22/11 15/24/15 13/23/13
f 16/24/16 10/17/10 14/23/14
f 16/24/16 12/19/12 10/17/10
f 15/24/15 2/17/2 13/23/13
f 15/24/15 5/19/5 2/17/2
f 7/22/7 14/23/14 4/21/4
f 7/22/7 16/24/16 14/23/14

