# ProBuilder 5.0.6
# https://unity3d.com/unity/features/worldbuilding/probuilder
# 10/26/2022 3:03:22 PM

mtllib ./var.mtl
o var

g Cube
v 1.450237 0 1.476957
v 0 0 1.476957
v 1.450237 0.2602796 1.476957
v 0 0.2602796 1.476957
v 0 0 1.192093E-07
v 0 0.2602796 1.192093E-07
v 1.450237 0 1.192093E-07
v 1.450237 0.2602796 1.192093E-07
v -0.1267595 -0.0008273125 1.547471
v -0.1369421 -0.0008273125 -0.1118829
v -0.1267595 1.478827 1.547471
v -0.1369421 1.478827 -0.1118829
v 0.03456896 -0.0008273125 0.05594835
v 0.044752 -0.0008273125 1.37964
v 0.03456896 1.478827 0.05594835
v 0.044752 1.478827 1.37964
v 1.568979 -0.0008273125 1.557435
v 1.568979 1.478827 1.557435
v 1.397468 -0.0008273125 1.389604
v 1.397468 1.478827 1.389604
v 1.558796 -0.0008273125 -0.1019188
v 1.558796 1.478827 -0.1019188
v 1.387285 -0.0008273125 0.06591267
v 1.387285 1.478827 0.06591267

vt 1.450237 0
vt 0 0
vt 1.450237 0.2602796
vt 0 0.2602796
vt 1.476957 0
vt 1.476957 0.2602796
vt -1.450237 0
vt -1.450237 0.2602796
vt -1.476957 0
vt -1.476957 0.2602796
vt -1.450237 1.476957
vt 0 1.476957
vt 1.450237 1.476957
vt 0.8634194 -1.479655
vt -0.8844097 -1.479655
vt 0.8634194 1.479655
vt -0.8844097 1.479655
vt 0.707637 -1.479655
vt -0.6866466 -1.479655
vt 0.707637 1.479655
vt -0.6866466 1.479655
vt 0.8844097 -1.479655
vt -0.8634193 -1.479655
vt 0.8844097 1.479655
vt -0.8634193 1.479655
vt 0.6866468 -1.479655
vt -0.7076371 -1.479655
vt 0.6866468 1.479655
vt -0.7076371 1.479655
vt 0.707126 -1.480136
vt -0.6871575 -1.479655
vt 0.7081479 1.479655
vt -1.302025 0.05870861
vt -0.05888563 1.287328
vt -1.052009 0.05872488
vt 8.940697E-08 1.228458
vt 0.002009124 0.973954
vt -1.000913 0.007778764
vt 0.06265444 1.291096
vt 1.305801 0.06248361
vt 0.06248343 1.040958
vt 1.243301 8.940697E-08
vt 0.9819975 -0.008698732
vt -5.960464E-08 0.9784582
vt 0.06234878 1.290823
vt 1.305801 0.06251609
vt 0.06251627 1.040958
vt 1.244918 0.001652062
vt 1.002978 0.007475019
vt -0.001617014 0.9768059
vt -0.009153813 1.237415
vt -0.007954955 0.9886403
vt -0.9915668 -0.001697004
vt 1.302025 -0.05870843
vt 0.05888569 -1.287328
vt 1.052008 -0.05872488
vt 0 -1.228458
vt -0.002009153 -0.9739538
vt 1.000913 -0.007778645
vt -0.06265426 -1.291096
vt -1.305801 -0.06248355
vt -0.06248355 -1.040958
vt -1.243301 1.192093E-07
vt -0.981997 0.00869894
vt 0 -0.978458
vt -0.06234896 -1.290823
vt -1.305801 -0.06251615
vt -0.06251633 -1.040958
vt -1.244918 -0.001652032
vt -1.002978 -0.007474929
vt 0.001616836 -0.976806
vt 0.009153843 -1.237415
vt 0.007954955 -0.9886404
vt 0.9915668 0.001696765

vn 0 0 1
vn -1 0 0
vn 0 0 -1
vn 1 0 0
vn 0 1 0
vn 0 -1 0
vn -0.2699342 -0.8004115 0.5352355
vn -0.533859 -0.8031632 -0.2644308
vn -0.5351653 0.8004115 0.2700736
vn -0.2645698 0.8031632 -0.53379
vn 0.2638843 -0.8035141 0.5336011
vn 0.5353249 -0.8000646 -0.270784
vn 0.5336874 0.8035141 0.26371
vn 0.2706091 0.8000644 -0.5354134
vn 0.533859 -0.8031632 0.2644307
vn 0.2645698 0.8031632 0.5337899
vn -0.2638844 -0.8035141 -0.5336011
vn -0.5336874 0.8035141 -0.2637099
vn 0.2699341 -0.8004113 -0.5352356
vn 0.5351652 0.8004113 -0.2700737
vn -0.5353249 -0.8000644 0.2707841
vn -0.2706091 0.8000644 0.5354134

usemtl ProBuilderDefault
f 11/16/9 10/15/8 9/14/7
f 11/16/9 12/17/10 10/15/8
f 15/20/13 14/19/12 13/18/11
f 15/20/13 16/21/14 14/19/12
f 18/24/16 9/23/7 17/22/15
f 18/24/16 11/25/9 9/23/7
f 16/28/14 19/27/17 14/26/12
f 16/28/14 20/29/18 19/27/17
f 22/16/20 17/15/15 21/14/19
f 22/16/20 18/17/16 17/15/15
f 20/32/18 23/31/21 19/30/17
f 20/20/18 24/21/22 23/19/21
f 12/24/10 21/23/19 10/22/8
f 12/24/10 22/25/20 21/23/19
f 24/28/22 13/27/11 23/26/21
f 24/28/22 15/29/13 13/27/11
f 13/35/11 9/34/7 10/33/8
f 13/38/11 14/37/12 9/36/7
f 16/41/14 12/40/10 11/39/9
f 16/44/14 15/43/13 12/42/10
f 14/47/12 17/46/15 9/45/7
f 14/50/12 19/49/17 17/48/15
f 20/35/18 11/34/9 18/33/16
f 20/53/18 16/52/14 11/51/9
f 19/56/17 21/55/19 17/54/15
f 19/59/17 23/58/21 21/57/19
f 24/62/22 18/61/16 22/60/20
f 24/65/22 20/64/18 18/63/16
f 23/68/21 10/67/8 21/66/19
f 23/71/21 13/70/11 10/69/8
f 15/56/13 22/55/20 12/54/10
f 15/74/13 24/73/22 22/72/20
f 4/4/1 2/2/1 1/1/1
f 1/1/1 3/3/1 4/4/1
f 6/4/2 5/2/2 2/5/2
f 2/5/2 4/6/2 6/4/2
f 8/8/3 7/7/3 5/2/3
f 5/2/3 6/4/3 8/8/3
f 3/10/4 1/9/4 7/2/4
f 7/2/4 8/4/4 3/10/4
f 6/2/5 4/12/5 3/11/5
f 3/11/5 8/7/5 6/2/5
f 2/12/6 5/2/6 7/1/6
f 7/1/6 1/13/6 2/12/6

